<?xml version="1.0" encoding="UTF-8"?>
<svg id="Layer_1" data-name="Layer 1" xmlns="http://www.w3.org/2000/svg" xmlns:xlink="http://www.w3.org/1999/xlink" viewBox="0 0 960 960">
  <defs>
    <style>
      .cls-1 {
        fill: url(#linear-gradient);
      }

      .cls-1, .cls-2, .cls-3 {
        stroke-width: 0px;
      }

      .cls-3 {
        fill: url(#linear-gradient-2);
      }
    </style>
    <linearGradient id="linear-gradient" x1="150.79" y1="689.96" x2="349.67" y2="419.86" gradientTransform="translate(0 962) scale(1 -1)" gradientUnits="userSpaceOnUse">
      <stop offset="0" stop-color="#41d1ff"/>
      <stop offset="1" stop-color="#bd34fe"/>
    </linearGradient>
    <linearGradient id="linear-gradient-2" x1="244.57" y1="648.92" x2="280.55" y2="402.12" gradientTransform="translate(0 962) scale(1 -1)" gradientUnits="userSpaceOnUse">
      <stop offset="0" stop-color="#ffea83"/>
      <stop offset=".08" stop-color="#ffdd35"/>
      <stop offset="1" stop-color="#ffa800"/>
    </linearGradient>
  </defs>
  <path class="cls-1" d="M404.9,359.7l-159.8,285.75c-3.3,5.9-11.78,5.93-15.12.06L67,359.73c-3.65-6.4,1.82-14.15,9.07-12.85l159.97,28.59c1.02.18,2.07.18,3.09,0l156.63-28.55c7.23-1.32,12.72,6.37,9.14,12.78Z"/>
  <path class="cls-3" d="M312.25,309.37l-118.26,23.17c-1.94.38-3.38,2.03-3.5,4l-7.27,122.86c-.17,2.89,2.49,5.14,5.31,4.49l32.92-7.6c3.08-.71,5.86,2,5.23,5.1l-9.78,47.9c-.66,3.22,2.37,5.98,5.52,5.02l20.34-6.18c3.15-.96,6.18,1.81,5.51,5.03l-15.55,75.24c-.97,4.71,5.29,7.27,7.9,3.24l1.74-2.69,96.36-192.31c1.61-3.22-1.17-6.89-4.71-6.21l-33.89,6.54c-3.18.61-5.89-2.35-5-5.47l22.12-76.68c.9-3.12-1.82-6.09-5.01-5.47Z"/>
  <path class="cls-2" d="M470.64,388.71h29.31l38.12,116.61,5.96,19.97h1.43l6.2-19.97,40.03-116.61h29.07l-61.95,176.52h-27.88l-60.28-176.52Z"/>
  <path class="cls-2" d="M637.31,415.95c-3.42-3.53-5.12-7.85-5.12-12.94s1.71-9.41,5.12-12.94c3.41-3.53,7.58-5.3,12.51-5.3s9.09,1.77,12.51,5.3c3.41,3.54,5.12,7.85,5.12,12.94s-1.71,9.41-5.12,12.94c-3.42,3.54-7.59,5.3-12.51,5.3s-9.1-1.76-12.51-5.3ZM636.72,439.5h26.21v125.73h-26.21v-125.73Z"/>
  <path class="cls-2" d="M728.93,564.49c-4.77-1.81-8.66-4.19-11.68-7.15-6.83-7.06-10.25-16.68-10.25-28.84v-65.09h-21.21v-23.91h21.21v-35.5h26.21v35.5h29.55v23.91h-29.55v59.17c0,6.74,1.27,11.51,3.81,14.3,2.38,3.29,6.51,4.93,12.39,4.93,2.7,0,5.08-.37,7.15-1.11,2.06-.74,2.87-1.53,3.15-1.73l7.9,20.78c-9.97,6.52-15.97,7.45-23.43,7.45-5.4,0-10.48-.91-15.25-2.71Z"/>
  <path class="cls-2" d="M806.49,560.55c-9.45-5.75-16.84-13.68-22.16-23.79-5.32-10.11-7.98-21.49-7.98-34.14,0-12,2.58-23.13,7.74-33.41,5.16-10.27,12.35-18.45,21.56-24.53,9.21-6.08,19.7-9.12,31.45-9.12s22.83,2.8,31.81,8.38c8.97,5.59,15.8,13.23,20.49,22.93,4.68,9.7,7.03,20.63,7.03,32.79,0,2.3-.24,5.18-.71,8.63h-93.17c.95,11.67,4.96,20.67,12.03,27,7.07,6.33,15.29,9.49,24.66,9.49,7.46,0,13.94-1.76,19.42-5.3,5.48-3.53,9.89-8.34,13.22-14.42l22.16,10.85c-5.72,10.35-13.19,18.49-22.4,24.41-9.21,5.92-20.25,8.88-33.12,8.88-11.91,0-22.6-2.88-32.05-8.63ZM869.75,487.57c-.32-4.44-1.67-8.83-4.05-13.19-2.38-4.35-6-8.01-10.84-10.97-4.85-2.96-10.76-4.44-17.75-4.44-8.42,0-15.53,2.59-21.33,7.77-5.8,5.18-9.81,12.12-12.03,20.83h66Z"/>
</svg>